<?xml version="1.0" encoding="UTF-8"?>
<svg width="56px" height="57px" viewBox="0 0 56 57" version="1.1" xmlns="http://www.w3.org/2000/svg" xmlns:xlink="http://www.w3.org/1999/xlink">
    <!-- Generator: Sketch 61.2 (89653) - https://sketch.com -->
    <title>编组备份 3</title>
    <desc>Created with Sketch.</desc>
    <defs>
        <polygon id="path-1" points="256.988892 76 1902.50586 76 1902.50586 1056 256 1055.04175"></polygon>
        <filter x="-0.2%" y="-0.3%" width="100.4%" height="100.7%" filterUnits="objectBoundingBox" id="filter-2">
            <feOffset dx="0" dy="1" in="SourceAlpha" result="shadowOffsetOuter1"></feOffset>
            <feGaussianBlur stdDeviation="1" in="shadowOffsetOuter1" result="shadowBlurOuter1"></feGaussianBlur>
            <feColorMatrix values="0 0 0 0 0.803921569   0 0 0 0 0.815686275   0 0 0 0 0.82745098  0 0 0 0.5 0" type="matrix" in="shadowBlurOuter1"></feColorMatrix>
        </filter>
    </defs>
    <g id="Page-1" stroke="none" stroke-width="1" fill="none" fill-rule="evenodd">
        <g id="人员信息" transform="translate(-686.000000, -360.000000)">
            <rect id="背景" fill="#F5F6FB" fill-rule="nonzero" x="0" y="0" width="1920" height="1080"></rect>
            <g id="Rectangle-15" fill-rule="nonzero">
                <use fill="black" fill-opacity="1" filter="url(#filter-2)" xlink:href="#path-1"></use>
                <use fill="#FFFFFF" xlink:href="#path-1"></use>
            </g>
            <g id="编组备份-3" transform="translate(686.000000, 360.500000)">
                <rect id="矩形备份-5" fill="#C2C9D3" x="0" y="0" width="56" height="56"></rect>
                <g id="人-(1)-(1)" transform="translate(3.000000, 3.500000)" fill="#F6FAFF" fill-rule="nonzero">
                    <path d="M45.1000977,37.7429199 C45.5786133,37.0251465 45.9375,36.3671875 46.3562012,35.5895996 C46.4758301,35.4101562 46.5356445,35.2307129 46.595459,35.0512695 C46.8945312,34.453125 47.1337891,33.8549805 47.3730469,33.2568359 C47.4926758,33.0175781 47.5524902,32.7783203 47.6721191,32.479248 C47.8515625,31.8811035 48.0310059,31.3427734 48.2104492,30.7446289 C48.2702637,30.4455566 48.3898926,30.2062988 48.449707,29.9072266 C48.5693359,29.309082 48.6889648,28.651123 48.8085938,28.0529785 C48.8684082,27.7539062 48.9282227,27.5146484 48.9282227,27.2753906 C49.0478516,26.3781738 49.107666,25.480957 49.107666,24.5239258 C49.107666,11.0058594 38.1018066,0 24.5837402,0 C11.0058594,0 0,11.0058594 0,24.5239258 C0,25.4211426 0.0598144531,26.3781738 0.179443359,27.2753906 C0.239257812,27.5744629 0.239257812,27.8137207 0.299072266,28.112793 C0.358886719,28.651123 0.478515625,29.309082 0.598144531,29.9072266 C0.657958984,30.2062988 0.717773438,30.5053711 0.837402344,30.7446289 C1.0168457,31.3427734 1.19628906,31.940918 1.37573242,32.479248 C1.43554688,32.7185059 1.55517578,32.9577637 1.67480469,33.2568359 C1.9140625,33.8549805 2.15332031,34.5129395 2.45239258,35.0512695 C2.51220703,35.2307129 2.63183594,35.4101562 2.69165039,35.5895996 C3.05053711,36.307373 3.46923828,37.0251465 3.94775391,37.7429199 L4.00756836,37.8027344 C8.37402344,44.5617676 15.9106445,48.9880371 24.5239258,48.9880371 C33.137207,48.9880371 40.6738281,44.5019531 45.0402832,37.8027344 L45.1000977,37.7429199 Z M24.5239258,11.7236328 C29.4885254,11.7236328 33.5559082,15.7910156 33.5559082,20.7556152 C33.4960938,25.7202148 29.4885254,29.7277832 24.5239258,29.7277832 C19.5593262,29.7277832 15.4919434,25.6604004 15.4919434,20.6958008 C15.4919434,15.7910156 19.5593262,11.7236328 24.5239258,11.7236328 Z M9.63012695,39.8364258 C12.2021484,33.9746094 18.0041504,30.0866699 24.5239258,30.0866699 C31.0437012,30.0866699 36.8457031,33.9746094 39.4177246,39.8364258 C35.5297852,43.6047363 30.2661133,45.8776855 24.5239258,45.8776855 C18.7219238,45.8776855 13.458252,43.6047363 9.63012695,39.8364258 Z" id="形状"></path>
                </g>
            </g>
        </g>
    </g>
</svg>