<?xml version="1.0" encoding="UTF-8"?>
<svg width="1920px" height="1080px" viewBox="0 0 1920 1080" version="1.1" xmlns="http://www.w3.org/2000/svg" xmlns:xlink="http://www.w3.org/1999/xlink">
    <!-- Generator: Sketch 55 (78076) - https://sketchapp.com -->
    <title>bg</title>
    <desc>Created with Sketch.</desc>
    <defs>
        <linearGradient x1="100%" y1="34.1796875%" x2="0%" y2="65.8203125%" id="linearGradient-1">
            <stop stop-color="#9C95FD" offset="0%"></stop>
            <stop stop-color="#594FFB" offset="100%"></stop>
        </linearGradient>
    </defs>
    <g id="页面1" stroke="none" stroke-width="1" fill="none" fill-rule="evenodd">
        <g id="智慧会议登录页面">
            <g id="bg">
                <polygon id="Fill-1" fill="url(#linearGradient-1)" points="0 1080 1920 1080 1920 0 0 0"></polygon>
                <g id="编组-2" opacity="0.599097842" transform="translate(20.000000, 249.000000)" fill="#5A4FFC">
                    <path d="M532,628.82403 L326.429,255 L205.572879,255 L0,628.832545 L0,678.574267 C4.04482695,682.646168 6.31158406,684.928098 10.356411,689 L72.3088,689 L256.942369,353.258278 L275.063269,353.258278 L459.696839,689 L521.643589,689 C525.688416,684.928098 527.956113,682.646168 532,678.574267 L532,628.82403 Z" id="Fill-3"></path>
                    <path d="M433,769.5437 L319.871057,565 L213.135533,565 L100,769.5437 L100,820.616258 C104.05202,824.671759 106.32375,826.944499 110.374829,831 L165.620322,831 L258.601196,662.89645 C264.993673,662.89645 268.011035,662.89645 274.403511,662.895508 L367.375912,831 L422.625171,831 C426.677191,826.944499 428.948921,824.671759 433,820.616258 L433,769.5437 Z" id="Fill-5"></path>
                    <path d="M433,204.5437 L319.871057,0 L213.135533,0 L100,204.5437 L100,255.616258 C104.05202,259.671759 106.32375,261.944499 110.374829,266 L165.620322,266 L258.601196,97.8964502 C264.993673,97.8964502 268.011035,97.8964502 274.403511,97.8964502 L367.375912,266 L422.625171,266 C426.677191,261.944499 428.948921,259.671759 433,255.616258 L433,204.5437 Z" id="Fill-7"></path>
                </g>
                <g id="logo" transform="translate(60.000000, 50.000000)" fill="#FFFFFF">
                    <path d="M0,32.9905383 L1.02544961,29.5875762 C1.29080421,29.4429159 1.44214455,29.3602529 1.70749915,29.2155925 C5.92195453,30.4452053 9.73396675,31.0899771 14.392942,31.0899771 C15.9009162,31.0899771 22.128266,31.0238467 22.128266,28.262212 C22.128266,26.5986182 19.8995589,26.4656685 14.4587716,26.166015 C7.87105531,25.800231 0.692908042,25.4013818 0.692908042,19.0135948 C0.692908042,12.6258079 7.83780115,11.4285714 13.6063794,11.4285714 C17.0492026,11.4285714 20.9114354,11.8535973 24.7913132,12.674028 C24.957584,12.937172 25.0505599,13.0838989 25.216152,13.347043 L24.4438412,16.8126912 C24.1900238,16.9773284 24.0468273,17.0710132 23.7930098,17.2356505 C20.4838819,16.53577 17.0492026,16.0859453 12.7872413,16.0859453 C11.607058,16.0859453 5.70749915,16.1190105 5.70749915,18.7476954 C5.70749915,21.0099074 10.0997625,21.2096764 14.6881574,21.3756914 C21.1123176,21.6422797 27.1428571,22.3407825 27.1428571,28.0293778 C27.1428571,34.5501145 19.2114014,35.7142857 13.5079742,35.7142857 C9.43807262,35.7142857 4.82049542,35.1287558 0.358330506,33.6897299 C0.219205972,33.4183196 0.139124533,33.2619487 0,32.9905383" id="Fill-11"></path>
                    <path d="M46.3577459,31.4695616 L36.7275881,19.9612072 C36.4846068,20.0545127 36.4866316,20.0531605 36.2436504,20.1457898 L36.3178946,22.652868 L36.3178946,35.1652707 C36.1039361,35.3796029 35.9837954,35.4999535 35.7698369,35.7142857 L31.9766292,35.7142857 L31.4285714,35.1652707 L31.4285714,13.4061578 L31.9766292,12.8571429 L36.3178946,12.8571429 L47.4369877,26.1355972 L48.277298,26.1355972 L59.3963911,12.8571429 L63.7376565,12.8571429 L64.2857143,13.4061578 L64.2857143,35.1652707 L63.7376565,35.7142857 L59.9444488,35.7142857 C59.7304903,35.4999535 59.6103496,35.3796029 59.3963911,35.1652707 L59.3963911,22.652868 L59.4706354,20.1437615 C59.2276541,20.0511321 59.2296789,20.0518082 58.9866977,19.9591788 L49.3241423,31.4695616 L46.3577459,31.4695616 Z" id="Fill-13"></path>
                    <path d="M121.281422,22.9794373 C123.453233,22.9794373 124.966278,22.2613906 124.966278,20.2039367 C124.966278,18.1464829 123.453233,17.4284362 121.281422,17.4284362 L108.345255,17.4284362 L107.792084,17.9774512 L107.792084,22.4304223 C108.008039,22.6447545 108.1293,22.7651051 108.345255,22.9794373 L121.281422,22.9794373 Z M102.857143,13.4061578 L103.410314,12.8571429 L121.116561,12.8571429 C126.052183,12.8571429 130,14.7178438 130,20.2039367 C130,25.4959813 126.15982,27.3221998 121.440153,27.3857557 L121.261666,27.696774 L129.80857,34.7426915 C129.632809,35.2261222 129.631446,35.230855 129.455004,35.7142857 L123.354452,35.7142857 L113.94441,27.5507306 L108.345255,27.5507306 C108.1293,27.7650628 108.008039,27.8854134 107.792084,28.0997456 L107.792084,35.1652707 L107.238913,35.7142857 L103.410314,35.7142857 L102.857143,35.1652707 L102.857143,13.4061578 Z" id="Fill-15"></path>
                    <path d="M161.428571,33.3459894 C161.288195,33.6043114 161.205059,33.7565492 161.064001,34.0141824 C159.277264,34.596268 155.380789,35.7142857 149.838635,35.7142857 C137.858915,35.7142857 132.857143,30.4913589 132.857143,23.571773 C132.857143,16.6514983 137.858915,11.4285714 149.838635,11.4285714 C155.380789,11.4285714 159.277264,12.5465891 161.064001,13.1286748 C161.205059,13.3869968 161.288195,13.5392346 161.428571,13.7968677 L160.574727,17.2253176 C160.304876,17.3830662 160.157685,17.4684847 159.888516,17.6262334 C156.735492,16.740361 153.478208,16.0859453 149.838635,16.0859453 C141.150271,16.0859453 137.892305,19.1802986 137.892305,23.571773 C137.892305,27.9632474 141.150271,31.0569119 149.838635,31.0569119 C153.478208,31.0569119 156.735492,30.403185 159.888516,29.5166238 C160.157685,29.6743724 160.304876,29.7597909 160.574727,29.9175396 L161.428571,33.3459894 Z" id="Fill-17"></path>
                    <path d="M186.724794,35.1652707 L186.724794,26.7941447 L186.197535,26.2451298 L170.945322,26.2451298 C170.739483,26.459462 170.623902,26.5798125 170.418063,26.7941447 L170.418063,35.1652707 L169.890804,35.7142857 L166.241545,35.7142857 L165.714286,35.1652707 L165.714286,13.4061578 L166.241545,12.8571429 L169.890804,12.8571429 L170.418063,13.4061578 L170.418063,21.1241453 C170.623902,21.3384775 170.739483,21.4588281 170.945322,21.6731603 L186.197535,21.6731603 L186.724794,21.1241453 L186.724794,13.4061578 L187.252054,12.8571429 L190.901312,12.8571429 C191.107151,13.0714751 191.222732,13.1918256 191.428571,13.4061578 L191.428571,35.1652707 C191.222732,35.3796029 191.107151,35.4999535 190.901312,35.7142857 L187.252054,35.7142857 L186.724794,35.1652707 Z" id="Fill-19"></path>
                    <path d="M197.623255,12.8571429 L200.948174,12.8571429 C201.135718,13.0714751 201.241027,13.1918256 201.428571,13.4061578 L201.428571,35.1652707 C201.241027,35.3796029 201.135718,35.4999535 200.948174,35.7142857 L197.623255,35.7142857 C197.43571,35.4999535 197.330402,35.3796029 197.142857,35.1652707 L197.142857,13.4061578 C197.330402,13.1918256 197.43571,13.0714751 197.623255,12.8571429" id="Fill-21"></path>
                    <path d="M222.381196,17.9774512 L222.381196,35.1652707 C222.172821,35.3796029 222.055815,35.4999535 221.84744,35.7142857 L218.153217,35.7142857 C217.944185,35.4999535 217.827837,35.3796029 217.618804,35.1652707 L217.618804,17.9774512 C217.410429,17.763119 217.293423,17.6427684 217.085048,17.4284362 L207.67727,17.4284362 L207.142857,16.8794212 L207.142857,13.4061578 C207.35189,13.1918256 207.468238,13.0714751 207.67727,12.8571429 L232.323387,12.8571429 C232.531762,13.0714751 232.648768,13.1918256 232.857143,13.4061578 L232.857143,16.8794212 C232.648768,17.0937534 232.531762,17.214104 232.323387,17.4284362 L222.914952,17.4284362 C222.706577,17.6427684 222.589571,17.763119 222.381196,17.9774512" id="Fill-23"></path>
                    <path d="M97.1428571,32.5452794 L86.1024796,12.8571429 L79.6118061,12.8571429 L68.5714286,32.5459555 L68.5714286,35.1652707 L69.1275568,35.7142857 L72.4547375,35.7142857 L82.3705307,18.0322174 L83.343755,18.0322174 L93.2595482,35.7142857 L96.5867289,35.7142857 C96.8038381,35.4999535 96.925748,35.3796029 97.1428571,35.1652707 L97.1428571,32.5452794 Z" id="Fill-25"></path>
                    <polygon id="Fill-27" points="91.4285714 39.8868295 85.6048931 30 80.1100503 30 74.2857143 39.8868295 74.2857143 42.3552922 74.8197433 42.8571429 77.6635135 42.8571429 82.4507021 34.7317351 83.2642413 34.7317351 88.0501145 42.8571429 90.8945424 42.8571429 91.4285714 42.3552922"></polygon>
                    <polygon id="Fill-29" points="91.4285714 9.88682951 85.6048931 0 80.1100503 0 74.2857143 9.88682951 74.2857143 12.3552922 74.8197433 12.8571429 77.6635135 12.8571429 82.4507021 4.73173512 83.2642413 4.73173512 88.0501145 12.8571429 90.8945424 12.8571429 91.4285714 12.3552922"></polygon>
                    <path d="M265.186581,14.2857143 L244.813419,14.2857143 C244.606756,14.4573486 244.491727,14.5537237 244.285714,14.725358 L244.285714,16.7032134 C244.491727,16.8748477 244.606756,16.9712228 244.813419,17.1428571 L265.186581,17.1428571 C265.392594,16.9712228 265.508273,16.8748477 265.714286,16.7032134 L265.714286,14.725358 C265.508273,14.5537237 265.392594,14.4573486 265.186581,14.2857143" id="Fill-31"></path>
                    <path d="M268.044169,21.4285714 L243.384402,21.4285714 C243.178563,21.633373 243.062982,21.7483719 242.857143,21.9531735 L242.857143,24.2266643 C243.062982,24.4314658 243.178563,24.5464648 243.384402,24.7512663 L249.353732,24.7512663 L249.908263,24.7512663 C249.978392,24.9037368 249.986833,24.9231187 250.056961,25.0755892 L245.70772,30.0702915 L245.70772,33.0822307 C249.251787,35.444232 252.683518,35.7142857 255.713961,35.7142857 C261.481348,35.7142857 265.323459,34.0616601 266.602647,33.4168906 C266.690957,33.137146 266.739007,32.9840294 266.827317,32.7042847 L263.832587,27.0770881 L260.741107,27.0770881 C260.537865,27.4259613 260.486568,27.5138257 260.283976,27.862699 L262.137175,31.0794397 C262.077437,31.2351406 262.049515,31.3062074 261.989777,31.4619082 C260.087877,32.0763128 258.148315,32.4148491 256.262648,32.4497364 C254.036731,32.4917304 251.818605,32.2862828 249.781643,31.5471883 C249.73619,31.3714596 249.719307,31.3062074 249.674503,31.1304786 L254.962681,24.936686 C255.102938,24.8714337 255.224363,24.8158724 255.364619,24.7512663 L268.044169,24.7512663 C268.250008,24.5464648 268.36559,24.4314658 268.571429,24.2266643 L268.571429,21.9531735 C268.36559,21.7483719 268.250008,21.633373 268.044169,21.4285714" id="Fill-33"></path>
                    <path d="M293.801917,17.95398 L288.21904,17.95398 C288.114779,17.8556309 288.057075,17.8011986 287.952814,17.7028494 L287.952814,15.8082363 C288.057075,15.7105057 288.114779,15.6554549 288.21904,15.5571057 L293.801917,15.5571057 C293.906178,15.6554549 293.963882,15.7105057 294.068143,15.8082363 L294.068143,17.7028494 C293.963882,17.8011986 293.906178,17.8556309 293.801917,17.95398 L293.801917,17.95398 Z M287.952814,22.7780374 L287.952814,20.8685791 L288.21904,20.6174486 L293.801917,20.6174486 L294.068143,20.8685791 L294.068143,22.7780374 C293.963882,22.875768 293.906178,22.9308188 293.801917,23.029168 L288.21904,23.029168 C288.114779,22.9308188 288.057075,22.875768 287.952814,22.7780374 L287.952814,22.7780374 Z M279.055881,20.6174486 L284.638103,20.6174486 L284.904329,20.8685791 L284.904329,22.7780374 C284.800724,22.875768 284.742364,22.9308188 284.638103,23.029168 L279.055881,23.029168 C278.95162,22.9308188 278.893916,22.875768 278.789655,22.7780374 L278.789655,20.8685791 L279.055881,20.6174486 Z M284.904329,15.8082363 L284.904329,17.7028494 C284.800724,17.8011986 284.742364,17.8556309 284.638103,17.95398 L279.055881,17.95398 C278.95162,17.8556309 278.893916,17.8011986 278.789655,17.7028494 L278.789655,15.8082363 C278.893916,15.7105057 278.95162,15.6554549 279.055881,15.5571057 L284.638103,15.5571057 C284.742364,15.6554549 284.800724,15.7105057 284.904329,15.8082363 L284.904329,15.8082363 Z M275.714286,13.359404 L275.714286,25.2120246 L276.247393,25.7142857 L296.610405,25.7142857 C296.818271,25.5182059 296.934335,25.4081044 297.142857,25.2120246 L297.142857,13.359404 C296.934335,13.1633242 296.818271,13.0532226 296.610405,12.8571429 L276.247393,12.8571429 C276.038872,13.0532226 275.922808,13.1633242 275.714286,13.359404 L275.714286,13.359404 Z" id="Fill-35"></path>
                    <path d="M294.811516,34.5077337 C294.629878,34.3878294 294.491616,34.2970347 294.309978,34.1771304 L286.647961,34.1771304 C283.173112,34.1771304 282.079216,31.0575379 281.322842,28.9359933 C281.135104,28.8022271 280.999553,28.7051947 280.811815,28.5714286 L277.257669,28.5714286 C277.076031,28.6899467 276.938446,28.7807414 276.756808,28.8992596 L274.285714,34.4127806 L274.285714,36.5800691 C274.500563,36.7997782 274.621203,36.923148 274.836051,37.1428571 L276.859149,37.1428571 L278.829382,32.7923391 C279.060496,32.7902598 279.186559,32.7895667 279.417673,32.7874874 C281.135781,36.3388742 283.1887,37.1428571 286.810622,37.1428571 L295.338132,37.1428571 C295.500793,36.8850281 295.551625,36.8046298 295.714286,36.5468008 L294.811516,34.5077337 Z" id="Fill-37"></path>
                    <path d="M300,34.4559693 L297.714916,28.9020052 C297.54607,28.7821105 297.417546,28.6913232 297.248701,28.5714286 L294.518192,28.5714286 C294.417389,28.7439937 294.386518,28.7980503 294.285714,28.9706154 L297.704205,37.1428571 L299.488423,37.1428571 C299.68814,36.9231658 299.800284,36.799806 300,36.5801146 L300,34.4559693 Z" id="Fill-39"></path>
                    <path d="M291.428571,31.1239867 L289.995974,28.8249834 C289.799788,28.7335548 289.650452,28.6633887 289.454266,28.5714286 L285.984408,28.5714286 C285.867282,28.7043189 285.83068,28.7452492 285.714286,28.877608 L287.171041,31.1776744 C287.367227,31.2685714 287.51583,31.3376744 287.711284,31.4285714 L291.157718,31.4285714 C291.274844,31.2972757 291.311445,31.255814 291.428571,31.1239867" id="Fill-41"></path>
                </g>
                <text id="务实-进取-专业-协作" font-family="SourceHanSansCN-Normal, Source Han Sans CN" font-size="24" font-weight="normal" fill="#FFFFFF">
                    <tspan x="1641.12" y="84.4256763">务实  进取 专业  协作</tspan>
                </text>
            </g>
        </g>
    </g>
</svg>