<?xml version="1.0" encoding="UTF-8"?>
<svg width="27px" height="28px" viewBox="0 0 27 28" version="1.1" xmlns="http://www.w3.org/2000/svg" xmlns:xlink="http://www.w3.org/1999/xlink">
    <!-- Generator: Sketch 63.1 (92452) - https://sketch.com -->
    <title>mdpi/LOGO</title>
    <desc>Created with Sketch.</desc>
    <defs>
        <rect id="path-1" x="0.714285714" y="0" width="29" height="30"></rect>
        <polygon id="path-3" points="3.92935982e-05 0.0108057395 26.8230283 0.0108057395 26.8230283 27.1125828 3.92935982e-05 27.1125828"></polygon>
    </defs>
    <g id="智慧工位1.1.0" stroke="none" stroke-width="1" fill="none" fill-rule="evenodd">
        <g id="画板" transform="translate(-18.000000, -17.000000)">
            <g id="LOGO" transform="translate(16.000000, 16.000000)">
                <mask id="mask-2" fill="white">
                    <use xlink:href="#path-1"></use>
                </mask>
                <g id="蒙版"></g>
                <g id="编组" mask="url(#mask-2)">
                    <g transform="translate(2.000000, 1.000000)">
                        <g transform="translate(0.000000, 0.185662)">
                            <mask id="mask-4" fill="white">
                                <use xlink:href="#path-3"></use>
                            </mask>
                            <g id="Clip-2"></g>
                            <path d="M20.3570702,8.8125521 C17.9354057,8.8125521 15.4324035,10.163466 15.4324035,13.3556779 C15.4324035,17.0624395 18.2717589,18.1494969 19.8863329,17.6595057 C21.7527788,17.0915168 21.9258671,14.6246647 21.9258671,14.6246647 C21.9258671,14.6246647 21.0248649,16.5431746 19.2020349,15.982062 C17.6654587,15.5115212 17.4520945,14.1456757 17.6487589,13.1761062 C17.8538715,12.1580091 18.9106728,11.0171194 20.7236795,11.3065168 C22.9830614,11.6631062 23.8877965,14.1327088 23.7885801,15.5109318 C23.5673572,18.5968545 22.3138914,20.9764748 20.2769113,22.9855565 C17.9132049,25.3135057 15.0204102,26.3154925 12.4398031,26.1522276 C12.3977589,26.146923 12.3529642,26.146923 12.3122954,26.1412254 C15.6286751,25.9877839 18.1098693,23.2910642 18.1098693,20.5811812 C18.1098693,18.133583 16.773887,15.6040576 13.6142887,15.6040576 C9.9440702,15.6040576 8.87056909,18.4738656 9.35093333,20.100817 C9.91636821,21.9926073 12.3568936,22.1656956 12.3568936,22.1656956 C12.3568936,22.1656956 10.4599951,21.2572276 11.0150172,19.4151437 C11.4810393,17.8587243 12.8303815,17.6431989 13.7928781,17.8424174 C14.7962402,18.0473336 15.9271099,19.1194594 15.6414455,20.9466117 C15.2856419,23.2305521 12.8400084,24.1470753 11.4810393,24.0458943 C8.42439029,23.8219208 6.07070375,22.5578457 4.08421589,20.4978788 C1.79693554,18.1288678 0.805754525,15.2327331 0.947015011,12.6442673 C0.949962031,12.5821834 0.954480795,12.5234395 0.963125386,12.4631238 C1.11420927,15.8109384 3.78185166,18.3096183 6.46029978,18.3096183 C8.88137483,18.3096183 11.3879135,16.9608656 11.3879135,13.7659031 C11.3879135,10.0609097 8.54855806,8.97208411 6.93791347,9.46345055 C5.06557351,10.031636 4.89327108,12.4990775 4.89327108,12.4990775 C4.89327108,12.4990775 5.7954521,10.5793887 7.6147457,11.1405013 C9.15426887,11.6120245 9.36979426,12.9776735 9.17096865,13.9482254 C8.96762428,14.9629826 7.90905475,16.1036757 6.09997748,15.816243 C3.83863091,15.4582784 2.93350287,12.9892651 3.03075453,11.6126139 C3.25138808,8.52374415 4.50760442,6.14589205 6.54360221,4.13739978 C8.9012181,1.81396932 11.7867435,0.813947241 14.3589024,0.969156954 C14.4082159,0.974068653 14.4553682,0.976033333 14.5076287,0.980748565 C11.1906596,1.13595828 8.70946534,3.83267792 8.70946534,6.54079272 C8.70946534,8.98662274 10.0454477,11.5167375 13.2072071,11.5167375 C16.8758539,11.5167375 17.9526949,8.64634018 17.4666331,7.02056755 C16.9039488,5.12897373 14.4612623,4.95470662 14.4612623,4.95470662 C14.4612623,4.95470662 16.3626795,5.86376402 15.807068,7.70840199 C15.3375095,9.26148146 13.9887567,9.47661391 13.0268494,9.28014592 C12.0195581,9.07346159 10.8937965,8.00310397 11.1782821,6.17241523 C11.5319245,3.8880819 13.9761828,2.97529161 15.3375095,3.07411501 C18.3935691,3.29907086 20.7496132,4.56157417 22.7361011,6.62291634 C25.0544234,9.02179051 26.0397104,11.958987 25.8691762,14.5743689 C25.8662291,14.6079649 25.8650503,14.644115 25.8605316,14.6779075 C25.7127876,11.3230201 23.0406265,8.8131415 20.3570702,8.8131415 L20.3570702,8.8125521 Z M13.4129091,0.0107860927 C6.00606578,0.0107860927 3.92935982e-05,6.0792894 3.92935982e-05,13.5649163 C3.92935982e-05,21.0460245 6.00508344,27.1127596 13.4129091,27.1127596 C20.8207347,27.1127596 26.8230283,21.0460245 26.8230283,13.5649163 C26.8230283,6.07909294 20.8191629,0.0107860927 13.4129091,0.0107860927 L13.4129091,0.0107860927 Z" id="Fill-1" fill="#FFFFFF" mask="url(#mask-4)"></path>
                        </g>
                    </g>
                </g>
            </g>
        </g>
    </g>
</svg>